<mxfile host="app.diagrams.net" modified="2021-08-24T21:42:03.473Z" agent="5.0 (Macintosh; Intel Mac OS X 10_15_7) AppleWebKit/537.36 (KHTML, like Gecko) Chrome/92.0.4515.159 Safari/537.36" etag="4gCLw6lenI1wgNm5feD5" version="14.9.8" type="github">
  <diagram id="C5RBs43oDa-KdzZeNtuy" name="Page-1">
    <mxGraphModel dx="1796" dy="1077" grid="1" gridSize="10" guides="1" tooltips="1" connect="1" arrows="1" fold="1" page="1" pageScale="1" pageWidth="1169" pageHeight="827" background="#ffffff" math="0" shadow="0">
      <root>
        <mxCell id="WIyWlLk6GJQsqaUBKTNV-0" />
        <mxCell id="WIyWlLk6GJQsqaUBKTNV-1" parent="WIyWlLk6GJQsqaUBKTNV-0" />
        <mxCell id="TTgLs8dpn4O4WDhtMha_-41" value="CLI Project (2) - Ulta Sale App" style="swimlane;childLayout=stackLayout;resizeParent=1;resizeParentMax=0;horizontal=1;startSize=20;horizontalStack=0;fontSize=15;verticalAlign=middle;spacingTop=0;labelBorderColor=none;swimlaneLine=1;fillColor=#FF66B3;strokeColor=#FF0080;" parent="WIyWlLk6GJQsqaUBKTNV-1" vertex="1">
          <mxGeometry x="4" width="1650" height="760" as="geometry" />
        </mxCell>
        <mxCell id="TTgLs8dpn4O4WDhtMha_-42" value="User" style="swimlane;startSize=20;horizontal=0;fontColor=#333333;swimlaneFillColor=#FAFAFA;strokeColor=#FF0080;fontSize=14;fillColor=#E6E6E6;" parent="TTgLs8dpn4O4WDhtMha_-41" vertex="1">
          <mxGeometry y="20" width="1650" height="120" as="geometry" />
        </mxCell>
        <mxCell id="TTgLs8dpn4O4WDhtMha_-53" value="User Starts App" style="ellipse;whiteSpace=wrap;html=1;strokeColor=#0e8088;fillColor=#8CB5B8;" parent="TTgLs8dpn4O4WDhtMha_-42" vertex="1">
          <mxGeometry x="40" y="10" width="110" height="40" as="geometry" />
        </mxCell>
        <mxCell id="TTgLs8dpn4O4WDhtMha_-56" value="User decides next action" style="rhombus;whiteSpace=wrap;html=1;fillColor=#b0e3e6;strokeColor=#0e8088;" parent="TTgLs8dpn4O4WDhtMha_-42" vertex="1">
          <mxGeometry x="316" y="20" width="80" height="80" as="geometry" />
        </mxCell>
        <mxCell id="TTgLs8dpn4O4WDhtMha_-73" value="User decides next action" style="rhombus;whiteSpace=wrap;html=1;fillColor=#b0e3e6;strokeColor=#0e8088;" parent="TTgLs8dpn4O4WDhtMha_-42" vertex="1">
          <mxGeometry x="666" y="20" width="80" height="80" as="geometry" />
        </mxCell>
        <mxCell id="TTgLs8dpn4O4WDhtMha_-100" value="User decides next action" style="rhombus;whiteSpace=wrap;html=1;fillColor=#b0e3e6;strokeColor=#0e8088;" parent="TTgLs8dpn4O4WDhtMha_-42" vertex="1">
          <mxGeometry x="950" y="20" width="80" height="80" as="geometry" />
        </mxCell>
        <mxCell id="TTgLs8dpn4O4WDhtMha_-131" value="User decides next action" style="rhombus;whiteSpace=wrap;html=1;fillColor=#b0e3e6;strokeColor=#0e8088;" parent="TTgLs8dpn4O4WDhtMha_-42" vertex="1">
          <mxGeometry x="1510" y="20" width="80" height="80" as="geometry" />
        </mxCell>
        <mxCell id="TTgLs8dpn4O4WDhtMha_-43" value="CLI" style="swimlane;startSize=20;horizontal=0;fontColor=#333333;swimlaneFillColor=#ffffff;fillColor=#FFCCE6;strokeColor=#FF0080;fontSize=14;" parent="TTgLs8dpn4O4WDhtMha_-41" vertex="1">
          <mxGeometry y="140" width="1650" height="130" as="geometry" />
        </mxCell>
        <mxCell id="TTgLs8dpn4O4WDhtMha_-55" value="Greeting" style="shape=display;whiteSpace=wrap;html=1;fillColor=#fff2cc;strokeColor=#d6b656;" parent="TTgLs8dpn4O4WDhtMha_-43" vertex="1">
          <mxGeometry x="40" y="32.5" width="110" height="40" as="geometry" />
        </mxCell>
        <mxCell id="TTgLs8dpn4O4WDhtMha_-65" value="Prints SaleItems Objs as No. List&lt;br&gt;&lt;br&gt;Asks user to select an item to see products" style="shape=display;whiteSpace=wrap;html=1;fillColor=#fff2cc;strokeColor=#d6b656;" parent="TTgLs8dpn4O4WDhtMha_-43" vertex="1">
          <mxGeometry x="166" y="15" width="120" height="100" as="geometry" />
        </mxCell>
        <mxCell id="TTgLs8dpn4O4WDhtMha_-68" value="User inputs # to see product list" style="shape=manualInput;whiteSpace=wrap;html=1;fillColor=#fff2cc;strokeColor=#d6b656;" parent="TTgLs8dpn4O4WDhtMha_-43" vertex="1">
          <mxGeometry x="316" y="10" width="80" height="80" as="geometry" />
        </mxCell>
        <mxCell id="TTgLs8dpn4O4WDhtMha_-72" value="Prints products&amp;nbsp;&lt;br&gt;&lt;br&gt;Asks user if want to add to wish list?" style="shape=display;whiteSpace=wrap;html=1;fillColor=#fff2cc;strokeColor=#d6b656;" parent="TTgLs8dpn4O4WDhtMha_-43" vertex="1">
          <mxGeometry x="536" y="20" width="110" height="90" as="geometry" />
        </mxCell>
        <mxCell id="TTgLs8dpn4O4WDhtMha_-95" value="Ask user to select:&lt;br&gt;1. View All List&lt;br&gt;2. View RV&lt;br&gt;3. View WishList&lt;br&gt;4. EXIT" style="shape=display;whiteSpace=wrap;html=1;fillColor=#fff2cc;strokeColor=#d6b656;" parent="TTgLs8dpn4O4WDhtMha_-43" vertex="1">
          <mxGeometry x="806" y="17.5" width="110" height="95" as="geometry" />
        </mxCell>
        <mxCell id="TTgLs8dpn4O4WDhtMha_-102" value="User inputs yes/not" style="shape=manualInput;whiteSpace=wrap;html=1;fillColor=#fff2cc;strokeColor=#d6b656;" parent="TTgLs8dpn4O4WDhtMha_-43" vertex="1">
          <mxGeometry x="666" y="10" width="80" height="80" as="geometry" />
        </mxCell>
        <mxCell id="TTgLs8dpn4O4WDhtMha_-96" style="edgeStyle=orthogonalEdgeStyle;rounded=0;orthogonalLoop=1;jettySize=auto;html=1;exitX=1.018;exitY=0.646;exitDx=0;exitDy=0;exitPerimeter=0;" parent="TTgLs8dpn4O4WDhtMha_-43" source="TTgLs8dpn4O4WDhtMha_-102" target="TTgLs8dpn4O4WDhtMha_-95" edge="1">
          <mxGeometry relative="1" as="geometry" />
        </mxCell>
        <mxCell id="TTgLs8dpn4O4WDhtMha_-213" style="edgeStyle=orthogonalEdgeStyle;rounded=0;orthogonalLoop=1;jettySize=auto;html=1;exitX=1;exitY=0.25;exitDx=0;exitDy=0;entryX=0;entryY=0;entryDx=30.000000000000004;entryDy=0;entryPerimeter=0;fontSize=14;" parent="TTgLs8dpn4O4WDhtMha_-43" source="TTgLs8dpn4O4WDhtMha_-107" target="TTgLs8dpn4O4WDhtMha_-65" edge="1">
          <mxGeometry relative="1" as="geometry">
            <Array as="points">
              <mxPoint x="1116" y="30" />
              <mxPoint x="1116" y="-110" />
              <mxPoint x="196" y="-110" />
            </Array>
          </mxGeometry>
        </mxCell>
        <mxCell id="TTgLs8dpn4O4WDhtMha_-107" value="User inputs 1,2,3,4" style="shape=manualInput;whiteSpace=wrap;html=1;fillColor=#fff2cc;strokeColor=#d6b656;" parent="TTgLs8dpn4O4WDhtMha_-43" vertex="1">
          <mxGeometry x="950" y="10" width="80" height="80" as="geometry" />
        </mxCell>
        <mxCell id="TTgLs8dpn4O4WDhtMha_-94" value="No" style="text;html=1;strokeColor=none;fillColor=none;align=center;verticalAlign=middle;whiteSpace=wrap;rounded=0;" parent="TTgLs8dpn4O4WDhtMha_-43" vertex="1">
          <mxGeometry x="746" y="45" width="40" height="15" as="geometry" />
        </mxCell>
        <mxCell id="TTgLs8dpn4O4WDhtMha_-110" value="Prints Wish List.&amp;nbsp;&lt;br&gt;&lt;br&gt;Asks User if want to remove a product" style="shape=display;whiteSpace=wrap;html=1;fillColor=#fff2cc;strokeColor=#d6b656;" parent="TTgLs8dpn4O4WDhtMha_-43" vertex="1">
          <mxGeometry x="1338.5" y="25" width="110" height="80" as="geometry" />
        </mxCell>
        <mxCell id="TTgLs8dpn4O4WDhtMha_-123" style="edgeStyle=orthogonalEdgeStyle;rounded=0;orthogonalLoop=1;jettySize=auto;html=1;exitX=0;exitY=0;exitDx=58.75;exitDy=0;exitPerimeter=0;entryX=0;entryY=0;entryDx=27.5;entryDy=0;entryPerimeter=0;" parent="TTgLs8dpn4O4WDhtMha_-43" source="TTgLs8dpn4O4WDhtMha_-111" target="TTgLs8dpn4O4WDhtMha_-95" edge="1">
          <mxGeometry relative="1" as="geometry">
            <Array as="points">
              <mxPoint x="1230" y="-100" />
              <mxPoint x="808" y="-100" />
            </Array>
          </mxGeometry>
        </mxCell>
        <mxCell id="TTgLs8dpn4O4WDhtMha_-111" value="Prints RecentlyViewed products" style="shape=display;whiteSpace=wrap;html=1;fillColor=#fff2cc;strokeColor=#d6b656;" parent="TTgLs8dpn4O4WDhtMha_-43" vertex="1">
          <mxGeometry x="1186" y="40" width="120" height="50" as="geometry" />
        </mxCell>
        <mxCell id="TTgLs8dpn4O4WDhtMha_-120" value="2. View RV" style="text;html=1;strokeColor=none;fillColor=none;align=center;verticalAlign=middle;whiteSpace=wrap;rounded=0;" parent="TTgLs8dpn4O4WDhtMha_-43" vertex="1">
          <mxGeometry x="1080" y="70" width="40" height="20" as="geometry" />
        </mxCell>
        <mxCell id="TTgLs8dpn4O4WDhtMha_-117" value="1. View All" style="text;html=1;strokeColor=none;fillColor=none;align=center;verticalAlign=middle;whiteSpace=wrap;rounded=0;" parent="TTgLs8dpn4O4WDhtMha_-43" vertex="1">
          <mxGeometry x="1070" width="40" height="20" as="geometry" />
        </mxCell>
        <mxCell id="TTgLs8dpn4O4WDhtMha_-128" value="3. View WL" style="text;html=1;strokeColor=none;fillColor=none;align=center;verticalAlign=middle;whiteSpace=wrap;rounded=0;" parent="TTgLs8dpn4O4WDhtMha_-43" vertex="1">
          <mxGeometry x="1020" y="100" width="40" height="20" as="geometry" />
        </mxCell>
        <mxCell id="TTgLs8dpn4O4WDhtMha_-137" style="edgeStyle=orthogonalEdgeStyle;rounded=0;orthogonalLoop=1;jettySize=auto;html=1;exitX=0;exitY=0.5;exitDx=0;exitDy=0;" parent="TTgLs8dpn4O4WDhtMha_-43" source="TTgLs8dpn4O4WDhtMha_-132" edge="1">
          <mxGeometry relative="1" as="geometry">
            <mxPoint x="906" y="45" as="targetPoint" />
            <Array as="points">
              <mxPoint x="1470" y="50" />
              <mxPoint x="1470" y="-30" />
              <mxPoint x="936" y="-30" />
              <mxPoint x="936" y="45" />
            </Array>
          </mxGeometry>
        </mxCell>
        <mxCell id="TTgLs8dpn4O4WDhtMha_-132" value="User inputs no, item#" style="shape=manualInput;whiteSpace=wrap;html=1;fillColor=#fff2cc;strokeColor=#d6b656;" parent="TTgLs8dpn4O4WDhtMha_-43" vertex="1">
          <mxGeometry x="1510" y="10" width="80" height="80" as="geometry" />
        </mxCell>
        <mxCell id="TTgLs8dpn4O4WDhtMha_-141" value="4. EXIT" style="text;html=1;strokeColor=none;fillColor=none;align=center;verticalAlign=middle;whiteSpace=wrap;rounded=0;" parent="TTgLs8dpn4O4WDhtMha_-43" vertex="1">
          <mxGeometry x="940" y="100" width="40" height="20" as="geometry" />
        </mxCell>
        <mxCell id="TTgLs8dpn4O4WDhtMha_-155" value="Yes; Remove" style="text;html=1;strokeColor=none;fillColor=none;align=center;verticalAlign=middle;whiteSpace=wrap;rounded=0;" parent="TTgLs8dpn4O4WDhtMha_-43" vertex="1">
          <mxGeometry x="1556" y="105" width="40" height="20" as="geometry" />
        </mxCell>
        <mxCell id="TTgLs8dpn4O4WDhtMha_-157" value="No" style="text;html=1;strokeColor=none;fillColor=none;align=center;verticalAlign=middle;whiteSpace=wrap;rounded=0;" parent="TTgLs8dpn4O4WDhtMha_-43" vertex="1">
          <mxGeometry x="1470" y="32.5" width="40" height="10" as="geometry" />
        </mxCell>
        <mxCell id="TTgLs8dpn4O4WDhtMha_-93" value="Yes" style="text;html=1;strokeColor=none;fillColor=none;align=center;verticalAlign=middle;whiteSpace=wrap;rounded=0;" parent="TTgLs8dpn4O4WDhtMha_-43" vertex="1">
          <mxGeometry x="686" y="110" width="40" height="20" as="geometry" />
        </mxCell>
        <mxCell id="TTgLs8dpn4O4WDhtMha_-44" value="SaleItem" style="swimlane;startSize=20;horizontal=0;fontColor=#333333;labelBorderColor=none;swimlaneFillColor=#FAFAFA;fillColor=#FFCCE6;strokeColor=#FF0080;fontSize=14;" parent="TTgLs8dpn4O4WDhtMha_-41" vertex="1">
          <mxGeometry y="270" width="1650" height="130" as="geometry" />
        </mxCell>
        <mxCell id="TTgLs8dpn4O4WDhtMha_-63" value="SaleItem Objects created and stored" style="shape=dataStorage;whiteSpace=wrap;html=1;fixedSize=1;fillColor=#d5e8d4;strokeColor=#82b366;" parent="TTgLs8dpn4O4WDhtMha_-44" vertex="1">
          <mxGeometry x="166" y="25" width="100" height="80" as="geometry" />
        </mxCell>
        <mxCell id="TTgLs8dpn4O4WDhtMha_-70" value="Gets data from SaleItem Obj" style="whiteSpace=wrap;html=1;aspect=fixed;fillColor=#fad7ac;strokeColor=#b46504;" parent="TTgLs8dpn4O4WDhtMha_-44" vertex="1">
          <mxGeometry x="318.5" y="20" width="75" height="75" as="geometry" />
        </mxCell>
        <mxCell id="TTgLs8dpn4O4WDhtMha_-49" value="RecentlyViewed" style="swimlane;startSize=20;horizontal=0;fontColor=#333333;swimlaneFillColor=#ffffff;fillColor=#FFCCE6;strokeColor=#FF0080;fontSize=14;" parent="TTgLs8dpn4O4WDhtMha_-41" vertex="1">
          <mxGeometry y="400" width="1650" height="120" as="geometry" />
        </mxCell>
        <mxCell id="TTgLs8dpn4O4WDhtMha_-112" value="Retrieves data from RV" style="whiteSpace=wrap;html=1;aspect=fixed;fillColor=#fad7ac;strokeColor=#b46504;" parent="TTgLs8dpn4O4WDhtMha_-49" vertex="1">
          <mxGeometry x="1208.5" y="22.5" width="75" height="75" as="geometry" />
        </mxCell>
        <mxCell id="TTgLs8dpn4O4WDhtMha_-166" value="Check if Product exits; in RV" style="whiteSpace=wrap;html=1;aspect=fixed;fillColor=#fad7ac;strokeColor=#b46504;" parent="TTgLs8dpn4O4WDhtMha_-49" vertex="1">
          <mxGeometry x="318.5" y="22.5" width="75" height="75" as="geometry" />
        </mxCell>
        <mxCell id="TTgLs8dpn4O4WDhtMha_-178" value="Adds product to RecentlyViewed" style="shape=dataStorage;whiteSpace=wrap;html=1;fixedSize=1;fillColor=#d5e8d4;strokeColor=#82b366;" parent="TTgLs8dpn4O4WDhtMha_-49" vertex="1">
          <mxGeometry x="436" y="20" width="100" height="80" as="geometry" />
        </mxCell>
        <mxCell id="TTgLs8dpn4O4WDhtMha_-173" value="Yes; exists" style="text;html=1;strokeColor=none;fillColor=none;align=center;verticalAlign=middle;whiteSpace=wrap;rounded=0;" parent="TTgLs8dpn4O4WDhtMha_-49" vertex="1">
          <mxGeometry x="406" y="4" width="40" height="20" as="geometry" />
        </mxCell>
        <mxCell id="TTgLs8dpn4O4WDhtMha_-50" value="WishList" style="swimlane;startSize=20;horizontal=0;swimlaneFillColor=#FAFAFA;fontSize=14;strokeColor=#FF0080;fillColor=#FFCCE6;" parent="TTgLs8dpn4O4WDhtMha_-41" vertex="1">
          <mxGeometry y="520" width="1650" height="120" as="geometry" />
        </mxCell>
        <mxCell id="TTgLs8dpn4O4WDhtMha_-91" value="Retrieves data from WL" style="whiteSpace=wrap;html=1;aspect=fixed;fillColor=#fad7ac;strokeColor=#b46504;" parent="TTgLs8dpn4O4WDhtMha_-50" vertex="1">
          <mxGeometry x="1346" y="22.5" width="75" height="75" as="geometry" />
        </mxCell>
        <mxCell id="TTgLs8dpn4O4WDhtMha_-135" value="Removes product from wish list" style="whiteSpace=wrap;html=1;aspect=fixed;strokeColor=#b46504;fillColor=#fad7ac;" parent="TTgLs8dpn4O4WDhtMha_-50" vertex="1">
          <mxGeometry x="1512.5" y="22.5" width="75" height="75" as="geometry" />
        </mxCell>
        <mxCell id="TTgLs8dpn4O4WDhtMha_-179" value="Adds Product to WishList" style="shape=dataStorage;whiteSpace=wrap;html=1;fixedSize=1;fillColor=#d5e8d4;strokeColor=#82b366;" parent="TTgLs8dpn4O4WDhtMha_-50" vertex="1">
          <mxGeometry x="816" y="20" width="100" height="80" as="geometry" />
        </mxCell>
        <mxCell id="TTgLs8dpn4O4WDhtMha_-182" style="edgeStyle=orthogonalEdgeStyle;rounded=0;orthogonalLoop=1;jettySize=auto;html=1;exitX=1;exitY=0.5;exitDx=0;exitDy=0;fontSize=14;" parent="TTgLs8dpn4O4WDhtMha_-50" source="TTgLs8dpn4O4WDhtMha_-181" target="TTgLs8dpn4O4WDhtMha_-179" edge="1">
          <mxGeometry relative="1" as="geometry" />
        </mxCell>
        <mxCell id="TTgLs8dpn4O4WDhtMha_-181" value="Check if Product exits in WL" style="whiteSpace=wrap;html=1;aspect=fixed;fillColor=#fad7ac;strokeColor=#b46504;" parent="TTgLs8dpn4O4WDhtMha_-50" vertex="1">
          <mxGeometry x="668.5" y="25" width="75" height="75" as="geometry" />
        </mxCell>
        <mxCell id="TTgLs8dpn4O4WDhtMha_-191" value="Yes; exists" style="text;html=1;strokeColor=none;fillColor=none;align=center;verticalAlign=middle;whiteSpace=wrap;rounded=0;" parent="TTgLs8dpn4O4WDhtMha_-50" vertex="1">
          <mxGeometry x="756" y="10" width="40" height="20" as="geometry" />
        </mxCell>
        <mxCell id="TTgLs8dpn4O4WDhtMha_-193" value="no; not in WL" style="text;html=1;strokeColor=none;fillColor=none;align=center;verticalAlign=middle;whiteSpace=wrap;rounded=0;" parent="TTgLs8dpn4O4WDhtMha_-50" vertex="1">
          <mxGeometry x="756" y="70" width="40" height="20" as="geometry" />
        </mxCell>
        <mxCell id="TTgLs8dpn4O4WDhtMha_-51" value="Scraper" style="swimlane;startSize=20;horizontal=0;fontColor=#333333;swimlaneFillColor=#ffffff;fillColor=#FFCCE6;labelBorderColor=none;strokeColor=#FF0080;fontSize=14;" parent="TTgLs8dpn4O4WDhtMha_-41" vertex="1">
          <mxGeometry y="640" width="1650" height="120" as="geometry" />
        </mxCell>
        <mxCell id="TTgLs8dpn4O4WDhtMha_-57" value="Gets data from Website (items)" style="whiteSpace=wrap;html=1;aspect=fixed;strokeColor=#b46504;fillColor=#fad7ac;" parent="TTgLs8dpn4O4WDhtMha_-51" vertex="1">
          <mxGeometry x="57.5" y="22.5" width="75" height="75" as="geometry" />
        </mxCell>
        <mxCell id="TTgLs8dpn4O4WDhtMha_-163" value="Get additional data from Ulta (products)" style="whiteSpace=wrap;html=1;aspect=fixed;strokeColor=#b46504;fillColor=#FAD7AC;" parent="TTgLs8dpn4O4WDhtMha_-51" vertex="1">
          <mxGeometry x="318.5" y="22.5" width="75" height="75" as="geometry" />
        </mxCell>
        <mxCell id="TTgLs8dpn4O4WDhtMha_-58" style="edgeStyle=orthogonalEdgeStyle;rounded=0;orthogonalLoop=1;jettySize=auto;html=1;exitX=0.5;exitY=1;exitDx=0;exitDy=0;" parent="TTgLs8dpn4O4WDhtMha_-41" source="TTgLs8dpn4O4WDhtMha_-53" target="TTgLs8dpn4O4WDhtMha_-55" edge="1">
          <mxGeometry relative="1" as="geometry" />
        </mxCell>
        <mxCell id="TTgLs8dpn4O4WDhtMha_-67" style="edgeStyle=orthogonalEdgeStyle;rounded=0;orthogonalLoop=1;jettySize=auto;html=1;exitX=0;exitY=0;exitDx=58.75;exitDy=0;exitPerimeter=0;entryX=0;entryY=0.5;entryDx=0;entryDy=0;" parent="TTgLs8dpn4O4WDhtMha_-41" source="TTgLs8dpn4O4WDhtMha_-65" target="TTgLs8dpn4O4WDhtMha_-56" edge="1">
          <mxGeometry relative="1" as="geometry" />
        </mxCell>
        <mxCell id="TTgLs8dpn4O4WDhtMha_-69" style="edgeStyle=orthogonalEdgeStyle;rounded=0;orthogonalLoop=1;jettySize=auto;html=1;exitX=0.5;exitY=1;exitDx=0;exitDy=0;" parent="TTgLs8dpn4O4WDhtMha_-41" source="TTgLs8dpn4O4WDhtMha_-56" target="TTgLs8dpn4O4WDhtMha_-68" edge="1">
          <mxGeometry relative="1" as="geometry" />
        </mxCell>
        <mxCell id="TTgLs8dpn4O4WDhtMha_-84" style="edgeStyle=orthogonalEdgeStyle;rounded=0;orthogonalLoop=1;jettySize=auto;html=1;exitX=0.5;exitY=1;exitDx=0;exitDy=0;entryX=0.5;entryY=0;entryDx=0;entryDy=0;" parent="TTgLs8dpn4O4WDhtMha_-41" source="TTgLs8dpn4O4WDhtMha_-68" target="TTgLs8dpn4O4WDhtMha_-70" edge="1">
          <mxGeometry relative="1" as="geometry" />
        </mxCell>
        <mxCell id="TTgLs8dpn4O4WDhtMha_-90" style="edgeStyle=orthogonalEdgeStyle;rounded=0;orthogonalLoop=1;jettySize=auto;html=1;exitX=0;exitY=0;exitDx=58.75;exitDy=0;exitPerimeter=0;entryX=0;entryY=0.5;entryDx=0;entryDy=0;" parent="TTgLs8dpn4O4WDhtMha_-41" source="TTgLs8dpn4O4WDhtMha_-72" target="TTgLs8dpn4O4WDhtMha_-73" edge="1">
          <mxGeometry relative="1" as="geometry" />
        </mxCell>
        <mxCell id="TTgLs8dpn4O4WDhtMha_-105" style="edgeStyle=orthogonalEdgeStyle;rounded=0;orthogonalLoop=1;jettySize=auto;html=1;exitX=0.5;exitY=0;exitDx=0;exitDy=0;entryX=0;entryY=0;entryDx=62.5;entryDy=95;entryPerimeter=0;" parent="TTgLs8dpn4O4WDhtMha_-41" source="TTgLs8dpn4O4WDhtMha_-179" target="TTgLs8dpn4O4WDhtMha_-95" edge="1">
          <mxGeometry relative="1" as="geometry">
            <mxPoint x="697.5" y="580" as="sourcePoint" />
          </mxGeometry>
        </mxCell>
        <mxCell id="TTgLs8dpn4O4WDhtMha_-106" style="edgeStyle=orthogonalEdgeStyle;rounded=0;orthogonalLoop=1;jettySize=auto;html=1;exitX=0;exitY=0;exitDx=58.75;exitDy=0;exitPerimeter=0;entryX=0;entryY=0.5;entryDx=0;entryDy=0;" parent="TTgLs8dpn4O4WDhtMha_-41" source="TTgLs8dpn4O4WDhtMha_-95" target="TTgLs8dpn4O4WDhtMha_-100" edge="1">
          <mxGeometry relative="1" as="geometry" />
        </mxCell>
        <mxCell id="TTgLs8dpn4O4WDhtMha_-108" style="edgeStyle=orthogonalEdgeStyle;rounded=0;orthogonalLoop=1;jettySize=auto;html=1;exitX=0.5;exitY=1;exitDx=0;exitDy=0;entryX=0.504;entryY=0.164;entryDx=0;entryDy=0;entryPerimeter=0;" parent="TTgLs8dpn4O4WDhtMha_-41" source="TTgLs8dpn4O4WDhtMha_-100" target="TTgLs8dpn4O4WDhtMha_-107" edge="1">
          <mxGeometry relative="1" as="geometry" />
        </mxCell>
        <mxCell id="TTgLs8dpn4O4WDhtMha_-118" style="edgeStyle=orthogonalEdgeStyle;rounded=0;orthogonalLoop=1;jettySize=auto;html=1;exitX=1;exitY=0.5;exitDx=0;exitDy=0;entryX=0;entryY=0.5;entryDx=0;entryDy=0;" parent="TTgLs8dpn4O4WDhtMha_-41" source="TTgLs8dpn4O4WDhtMha_-107" target="TTgLs8dpn4O4WDhtMha_-112" edge="1">
          <mxGeometry relative="1" as="geometry" />
        </mxCell>
        <mxCell id="TTgLs8dpn4O4WDhtMha_-127" style="edgeStyle=orthogonalEdgeStyle;rounded=0;orthogonalLoop=1;jettySize=auto;html=1;exitX=0.75;exitY=1;exitDx=0;exitDy=0;entryX=0;entryY=0.5;entryDx=0;entryDy=0;" parent="TTgLs8dpn4O4WDhtMha_-41" source="TTgLs8dpn4O4WDhtMha_-107" target="TTgLs8dpn4O4WDhtMha_-91" edge="1">
          <mxGeometry relative="1" as="geometry" />
        </mxCell>
        <mxCell id="TTgLs8dpn4O4WDhtMha_-133" style="edgeStyle=orthogonalEdgeStyle;rounded=0;orthogonalLoop=1;jettySize=auto;html=1;exitX=0;exitY=0;exitDx=58.75;exitDy=0;exitPerimeter=0;entryX=0;entryY=0.5;entryDx=0;entryDy=0;" parent="TTgLs8dpn4O4WDhtMha_-41" source="TTgLs8dpn4O4WDhtMha_-110" target="TTgLs8dpn4O4WDhtMha_-131" edge="1">
          <mxGeometry relative="1" as="geometry" />
        </mxCell>
        <mxCell id="TTgLs8dpn4O4WDhtMha_-134" style="edgeStyle=orthogonalEdgeStyle;rounded=0;orthogonalLoop=1;jettySize=auto;html=1;exitX=0.5;exitY=1;exitDx=0;exitDy=0;entryX=0.5;entryY=0;entryDx=0;entryDy=0;" parent="TTgLs8dpn4O4WDhtMha_-41" source="TTgLs8dpn4O4WDhtMha_-131" target="TTgLs8dpn4O4WDhtMha_-132" edge="1">
          <mxGeometry relative="1" as="geometry" />
        </mxCell>
        <mxCell id="TTgLs8dpn4O4WDhtMha_-136" style="edgeStyle=orthogonalEdgeStyle;rounded=0;orthogonalLoop=1;jettySize=auto;html=1;exitX=0.5;exitY=1;exitDx=0;exitDy=0;" parent="TTgLs8dpn4O4WDhtMha_-41" source="TTgLs8dpn4O4WDhtMha_-132" target="TTgLs8dpn4O4WDhtMha_-135" edge="1">
          <mxGeometry relative="1" as="geometry" />
        </mxCell>
        <mxCell id="TTgLs8dpn4O4WDhtMha_-159" style="edgeStyle=orthogonalEdgeStyle;rounded=0;orthogonalLoop=1;jettySize=auto;html=1;exitX=0.5;exitY=1;exitDx=0;exitDy=0;" parent="TTgLs8dpn4O4WDhtMha_-41" source="TTgLs8dpn4O4WDhtMha_-73" target="TTgLs8dpn4O4WDhtMha_-102" edge="1">
          <mxGeometry relative="1" as="geometry" />
        </mxCell>
        <mxCell id="TTgLs8dpn4O4WDhtMha_-165" style="edgeStyle=orthogonalEdgeStyle;rounded=0;orthogonalLoop=1;jettySize=auto;html=1;exitX=1;exitY=0.5;exitDx=0;exitDy=0;fontSize=14;" parent="TTgLs8dpn4O4WDhtMha_-41" source="TTgLs8dpn4O4WDhtMha_-163" target="TTgLs8dpn4O4WDhtMha_-178" edge="1">
          <mxGeometry relative="1" as="geometry">
            <mxPoint x="534" y="540" as="targetPoint" />
          </mxGeometry>
        </mxCell>
        <mxCell id="TTgLs8dpn4O4WDhtMha_-167" style="edgeStyle=orthogonalEdgeStyle;rounded=0;orthogonalLoop=1;jettySize=auto;html=1;exitX=0.5;exitY=1;exitDx=0;exitDy=0;fontSize=14;" parent="TTgLs8dpn4O4WDhtMha_-41" source="TTgLs8dpn4O4WDhtMha_-70" target="TTgLs8dpn4O4WDhtMha_-166" edge="1">
          <mxGeometry relative="1" as="geometry" />
        </mxCell>
        <mxCell id="TTgLs8dpn4O4WDhtMha_-180" style="edgeStyle=orthogonalEdgeStyle;rounded=0;orthogonalLoop=1;jettySize=auto;html=1;exitX=0.5;exitY=1;exitDx=0;exitDy=0;fontSize=14;" parent="TTgLs8dpn4O4WDhtMha_-41" source="TTgLs8dpn4O4WDhtMha_-102" target="TTgLs8dpn4O4WDhtMha_-181" edge="1">
          <mxGeometry relative="1" as="geometry" />
        </mxCell>
        <mxCell id="TTgLs8dpn4O4WDhtMha_-194" style="edgeStyle=orthogonalEdgeStyle;rounded=0;orthogonalLoop=1;jettySize=auto;html=1;exitX=1;exitY=0.25;exitDx=0;exitDy=0;entryX=0;entryY=0;entryDx=27.5;entryDy=95;entryPerimeter=0;fontSize=14;" parent="TTgLs8dpn4O4WDhtMha_-41" source="TTgLs8dpn4O4WDhtMha_-181" target="TTgLs8dpn4O4WDhtMha_-95" edge="1">
          <mxGeometry relative="1" as="geometry">
            <Array as="points">
              <mxPoint x="744" y="560" />
              <mxPoint x="806" y="560" />
              <mxPoint x="806" y="253" />
            </Array>
          </mxGeometry>
        </mxCell>
        <mxCell id="TTgLs8dpn4O4WDhtMha_-202" style="edgeStyle=orthogonalEdgeStyle;rounded=0;orthogonalLoop=1;jettySize=auto;html=1;exitX=1;exitY=0.25;exitDx=0;exitDy=0;entryX=0;entryY=0;entryDx=27.5;entryDy=90;entryPerimeter=0;fontSize=14;" parent="TTgLs8dpn4O4WDhtMha_-41" source="TTgLs8dpn4O4WDhtMha_-166" target="TTgLs8dpn4O4WDhtMha_-72" edge="1">
          <mxGeometry relative="1" as="geometry">
            <Array as="points">
              <mxPoint x="436" y="441" />
              <mxPoint x="436" y="250" />
            </Array>
          </mxGeometry>
        </mxCell>
        <mxCell id="TTgLs8dpn4O4WDhtMha_-203" style="edgeStyle=orthogonalEdgeStyle;rounded=0;orthogonalLoop=1;jettySize=auto;html=1;exitX=0.75;exitY=0;exitDx=0;exitDy=0;entryX=0;entryY=0;entryDx=65;entryDy=90;entryPerimeter=0;fontSize=14;" parent="TTgLs8dpn4O4WDhtMha_-41" source="TTgLs8dpn4O4WDhtMha_-178" target="TTgLs8dpn4O4WDhtMha_-72" edge="1">
          <mxGeometry relative="1" as="geometry" />
        </mxCell>
        <mxCell id="TTgLs8dpn4O4WDhtMha_-205" style="edgeStyle=orthogonalEdgeStyle;rounded=0;orthogonalLoop=1;jettySize=auto;html=1;exitX=0.5;exitY=1;exitDx=0;exitDy=0;fontSize=14;" parent="TTgLs8dpn4O4WDhtMha_-41" source="TTgLs8dpn4O4WDhtMha_-166" target="TTgLs8dpn4O4WDhtMha_-163" edge="1">
          <mxGeometry relative="1" as="geometry" />
        </mxCell>
        <mxCell id="TTgLs8dpn4O4WDhtMha_-206" style="edgeStyle=orthogonalEdgeStyle;rounded=0;orthogonalLoop=1;jettySize=auto;html=1;exitX=0.5;exitY=0;exitDx=0;exitDy=0;entryX=0;entryY=0;entryDx=48.75;entryDy=80;entryPerimeter=0;fontSize=14;" parent="TTgLs8dpn4O4WDhtMha_-41" source="TTgLs8dpn4O4WDhtMha_-91" target="TTgLs8dpn4O4WDhtMha_-110" edge="1">
          <mxGeometry relative="1" as="geometry" />
        </mxCell>
        <mxCell id="TTgLs8dpn4O4WDhtMha_-207" style="edgeStyle=orthogonalEdgeStyle;rounded=0;orthogonalLoop=1;jettySize=auto;html=1;exitX=0.5;exitY=0;exitDx=0;exitDy=0;fontSize=14;" parent="TTgLs8dpn4O4WDhtMha_-41" source="TTgLs8dpn4O4WDhtMha_-112" target="TTgLs8dpn4O4WDhtMha_-111" edge="1">
          <mxGeometry relative="1" as="geometry" />
        </mxCell>
        <mxCell id="TTgLs8dpn4O4WDhtMha_-210" style="edgeStyle=orthogonalEdgeStyle;rounded=0;orthogonalLoop=1;jettySize=auto;html=1;exitX=0.5;exitY=0;exitDx=0;exitDy=0;entryX=0;entryY=0;entryDx=50.000000000000014;entryDy=100;entryPerimeter=0;fontSize=14;" parent="TTgLs8dpn4O4WDhtMha_-41" source="TTgLs8dpn4O4WDhtMha_-63" target="TTgLs8dpn4O4WDhtMha_-65" edge="1">
          <mxGeometry relative="1" as="geometry" />
        </mxCell>
        <mxCell id="TTgLs8dpn4O4WDhtMha_-211" style="edgeStyle=orthogonalEdgeStyle;rounded=0;orthogonalLoop=1;jettySize=auto;html=1;exitX=0.5;exitY=1;exitDx=0;exitDy=0;entryX=0.5;entryY=1;entryDx=0;entryDy=0;fontSize=14;" parent="TTgLs8dpn4O4WDhtMha_-41" source="TTgLs8dpn4O4WDhtMha_-57" target="TTgLs8dpn4O4WDhtMha_-63" edge="1">
          <mxGeometry relative="1" as="geometry">
            <Array as="points">
              <mxPoint x="98" y="750" />
              <mxPoint x="216" y="750" />
            </Array>
          </mxGeometry>
        </mxCell>
        <mxCell id="TTgLs8dpn4O4WDhtMha_-214" style="edgeStyle=orthogonalEdgeStyle;rounded=0;orthogonalLoop=1;jettySize=auto;html=1;exitX=0;exitY=0.5;exitDx=0;exitDy=0;entryX=1;entryY=0.5;entryDx=0;entryDy=0;entryPerimeter=0;fontSize=14;" parent="TTgLs8dpn4O4WDhtMha_-41" source="TTgLs8dpn4O4WDhtMha_-135" target="TTgLs8dpn4O4WDhtMha_-110" edge="1">
          <mxGeometry relative="1" as="geometry" />
        </mxCell>
        <mxCell id="UK54_qFtT-VuezX-Os2O-0" style="edgeStyle=orthogonalEdgeStyle;rounded=0;orthogonalLoop=1;jettySize=auto;html=1;exitX=0;exitY=0;exitDx=58.75;exitDy=40;exitPerimeter=0;" edge="1" parent="TTgLs8dpn4O4WDhtMha_-41" source="TTgLs8dpn4O4WDhtMha_-55" target="TTgLs8dpn4O4WDhtMha_-57">
          <mxGeometry relative="1" as="geometry" />
        </mxCell>
        <mxCell id="TTgLs8dpn4O4WDhtMha_-139" value="Program Exit" style="ellipse;whiteSpace=wrap;html=1;strokeColor=#0e8088;fillColor=#8CB5B8;" parent="WIyWlLk6GJQsqaUBKTNV-1" vertex="1">
          <mxGeometry x="1640" y="180" width="110" height="40" as="geometry" />
        </mxCell>
        <mxCell id="TTgLs8dpn4O4WDhtMha_-160" style="edgeStyle=orthogonalEdgeStyle;rounded=0;orthogonalLoop=1;jettySize=auto;html=1;exitX=0.25;exitY=1;exitDx=0;exitDy=0;entryX=0;entryY=0.5;entryDx=0;entryDy=0;fontSize=15;" parent="WIyWlLk6GJQsqaUBKTNV-1" source="TTgLs8dpn4O4WDhtMha_-107" target="TTgLs8dpn4O4WDhtMha_-139" edge="1">
          <mxGeometry relative="1" as="geometry">
            <Array as="points">
              <mxPoint x="974" y="670" />
              <mxPoint x="1620" y="670" />
              <mxPoint x="1620" y="200" />
            </Array>
          </mxGeometry>
        </mxCell>
        <mxCell id="TTgLs8dpn4O4WDhtMha_-171" value="No; new prod" style="text;html=1;strokeColor=none;fillColor=none;align=center;verticalAlign=middle;whiteSpace=wrap;rounded=0;" parent="WIyWlLk6GJQsqaUBKTNV-1" vertex="1">
          <mxGeometry x="370" y="510" width="40" height="20" as="geometry" />
        </mxCell>
      </root>
    </mxGraphModel>
  </diagram>
</mxfile>
